<svg width="48" height="48" viewBox="0 0 48 48" fill="none" xmlns="http://www.w3.org/2000/svg">
<g clip-path="url(#clip0_6:8)">
<path d="M24.0002 48.0003C37.2551 48.0003 48.0003 37.2551 48.0003 24.0002C48.0003 10.7452 37.2551 0 24.0002 0C10.7452 0 0 10.7452 0 24.0002C0 37.2551 10.7452 48.0003 24.0002 48.0003Z" fill="white"/>
<path d="M19.8238 35.9915C16.8623 35.8123 14.7761 34.5339 13.7514 32.2627C13.2934 31.2528 13.1016 30.2811 13.0909 28.926C13.0844 28.2186 13.2145 20.3619 13.2593 18.7426C13.3041 17.0359 13.6238 15.8183 14.3098 14.7485C15.2835 13.224 16.662 12.3601 18.6862 12.0245C19.4661 11.8944 26.2947 11.756 26.9573 11.8646C28.4916 12.1183 29.6976 12.7414 30.7076 13.7993C31.5341 14.6653 32.071 15.7124 32.3204 16.9503C32.4931 17.8143 32.5121 19.8907 32.3523 20.7377C32.2928 21.0393 32.2839 21.1629 32.3204 21.1629C32.3483 21.1629 32.5867 21.1832 32.8469 21.2086C33.8909 21.3065 34.6772 21.5559 35.2736 21.9765C36.3155 22.7095 36.8076 23.7133 36.9205 25.3292C36.9889 26.2796 36.976 28.8107 36.9036 29.4074C36.6606 31.3248 35.9979 32.7757 34.8281 33.9412C33.7307 35.0364 32.4545 35.65 30.6797 35.9357C30.279 35.9995 29.6593 36.0081 25.3209 36.0166C22.6214 36.0212 20.1477 36.0087 19.8238 35.9915ZM30.4345 30.3836C30.8288 30.2811 31.0951 30.1323 31.3828 29.8421C32.0541 29.169 32.1903 28.2103 31.7387 27.3236C31.6108 27.0742 31.2356 26.7018 30.946 26.5395C30.437 26.2539 30.6692 26.2667 25.0141 26.2667C20.4545 26.2667 19.8643 26.2732 19.6109 26.3352C18.669 26.5674 18.0342 27.3835 18.0342 28.3594C18.0342 28.954 18.2367 29.4439 18.6543 29.8529C18.9399 30.132 19.155 30.2597 19.5428 30.3707C19.7836 30.441 20.1861 30.4474 24.9868 30.4517C29.5675 30.4517 30.2001 30.4453 30.4345 30.3836ZM26.3355 20.8583C26.4717 20.807 26.6849 20.6889 26.8082 20.5963C28.1698 19.5737 27.8311 17.49 26.2075 16.9123C26.033 16.8494 25.7427 16.8304 24.5582 16.7994C22.0272 16.7356 20.3567 16.7417 20.1266 16.8154C19.7603 16.9335 19.4618 17.1136 19.2169 17.363C18.1217 18.472 18.5521 20.2929 20.0352 20.8221C20.2588 20.9031 20.4463 20.9147 22.006 20.95C25.6065 21.031 25.8879 21.0255 26.3355 20.8583Z" fill="#414141"/>
</g>
<defs>
<clipPath id="clip0_6:8">
<rect width="48" height="48" fill="white"/>
</clipPath>
</defs>
</svg>
