<svg width="64" height="64" viewBox="0 0 64 64" fill="none" xmlns="http://www.w3.org/2000/svg">
<path d="M31.173 35.9786C33.8209 35.9786 35.9796 33.8238 35.9796 31.174C35.9796 30.128 35.6374 29.1622 35.0699 28.3734C34.196 27.163 32.7768 26.3694 31.174 26.3694C29.5702 26.3694 28.152 27.1621 27.2771 28.3724C26.7087 29.1613 26.3694 30.127 26.3684 31.173C26.3674 33.8228 28.5242 35.9786 31.173 35.9786Z" fill="white"/>
<path d="M41.6649 25.2963V21.2689V20.6695L41.0617 20.6715L37.0362 20.684L37.0527 25.3118L41.6649 25.2963Z" fill="white"/>
<path d="M31.174 7.174C17.9405 7.174 7.174 17.9405 7.174 31.174C7.174 44.4075 17.9405 55.174 31.174 55.174C44.4075 55.174 55.174 44.4075 55.174 31.174C55.174 17.9405 44.4075 7.174 31.174 7.174ZM44.8232 28.3734V39.5488C44.8232 42.4596 42.4567 44.8252 39.5478 44.8252H22.8002C19.8903 44.8252 17.5248 42.4596 17.5248 39.5488V28.3734V22.8012C17.5248 19.8913 19.8903 17.5257 22.8002 17.5257H39.5468C42.4567 17.5257 44.8232 19.8913 44.8232 22.8012V28.3734Z" fill="white"/>
<path d="M38.6391 31.174C38.6391 35.2894 35.2913 38.64 31.174 38.64C27.0567 38.64 23.7089 35.2894 23.7089 31.174C23.7089 30.1841 23.9061 29.2376 24.258 28.3734H20.1833V39.5488C20.1833 40.9931 21.3559 42.1628 22.7992 42.1628H39.5459C40.9892 42.1628 42.1618 40.9931 42.1618 39.5488V28.3734H38.0861C38.439 29.2376 38.6391 30.1841 38.6391 31.174Z" fill="white"/>
</svg>
