<svg width="60" height="60" viewBox="0 0 60 60" fill="none" xmlns="http://www.w3.org/2000/svg">
<path d="M29.9998 4.6525C16.0316 4.6525 4.66731 16.0233 4.66731 30C4.66731 43.9771 16.0316 55.3475 29.9998 55.3475C43.9684 55.3475 55.3331 43.9771 55.3331 30C55.3327 16.0233 43.968 4.6525 29.9998 4.6525ZM29.9998 52.8475C17.4091 52.8475 7.16587 42.5983 7.16587 30C7.16587 17.4021 17.4091 7.1525 29.9998 7.1525C42.5905 7.1525 52.8346 17.4021 52.8346 30C52.8341 42.5983 42.5905 52.8475 29.9998 52.8475Z" fill="white"/>
<path d="M41.3129 21.7417C41.895 21.4408 43.2892 20.5471 43.9463 18.6287C43.9463 18.6287 42.3627 19.7746 40.2072 19.9096L40.1681 19.9312C39.0654 18.7271 37.4801 17.9717 35.7173 17.9717C32.3826 17.9717 29.6796 20.6767 29.6796 24.0133C29.6796 24.5196 29.7424 25.0112 29.8603 25.4812L29.8311 25.4375C29.8311 25.4375 23.364 25.8083 17.2671 19.1346C17.2671 19.1346 14.5716 23.7183 19.1869 27.2237C18.1762 27.3921 16.3914 26.4821 16.3914 26.4821C16.3914 26.4821 16.4922 31.3012 21.2752 32.4812C20.5007 32.6837 19.0519 32.7504 18.5805 32.5487C18.5805 32.5487 19.2876 36.2221 24.1723 36.8629C22.926 37.5708 20.6019 39.7275 15.3466 39.3229C15.3466 39.3229 19.1202 42.4233 26.1266 41.9858C33.133 41.5483 38.2196 36.8287 40.2743 31.8408C42.3289 26.8529 41.7572 24.0129 41.7572 24.0129C41.7572 24.0129 43.4741 23.1112 44.6543 20.9546C44.1092 21.1179 42.0874 21.6121 41.3349 21.795C41.3274 21.7775 41.3199 21.7596 41.3129 21.7417Z" fill="white"/>
</svg>
